# xmcd
#
# Track frame offsets: 
#        150
#        19051
#        36611
#        55167
#        72741
#        89269
#        108488
#        125094
#        142924
#        163636
#        182782
#        198912
#        215097
#        233600
#
# Disc length: 3360 seconds
#
# Revision: 0
# Processed by: cddbd v1.5.1PL0 Copyright (c) Steve Scherf et al.
# Submitted via: ExactAudioCopy v0.95a3
#
DISCID=d00d1e0e
DTITLE=Various Artist - Дискотека Казанова 3
DYEAR=2000
DGENRE=Pop
TTITLE0=Ворон Light - Оу
TTITLE1=Пульс - Беги
TTITLE2=Алла Дин - Мальборо-Мальчик
TTITLE3=140 Ударов В Минуту - Без Тебя
TTITLE4=DVD - Покажи Мне Любовь
TTITLE5=Пластик - Сладкая Любовь
TTITLE6=Полярная Звезда - Жду Тебя
TTITLE7=Ежевика - Где-То Рядом
TTITLE8=Валдай - Моя Киска
TTITLE9=Небо - Обещала
TTITLE10=Настя.ru - Тили-Тили
TTITLE11=Шиншилы - Я Не Прошу
TTITLE12=Валдай - Хотеть Не Вредно
TTITLE13=Ворон Lighr - Капитан
EXTD=
EXTT0=
EXTT1=
EXTT2=
EXTT3=
EXTT4=
EXTT5=
EXTT6=
EXTT7=
EXTT8=
EXTT9=
EXTT10=
EXTT11=
EXTT12=
EXTT13=
PLAYORDER=
